<svg width="17" height="13" viewBox="0 0 17 13" fill="none" xmlns="http://www.w3.org/2000/svg">
<mask id="mask0_2_753" style="mask-type:luminance" maskUnits="userSpaceOnUse" x="0" y="0" width="17" height="5">
<path fill-rule="evenodd" clip-rule="evenodd" d="M0 4.01831L-1.75646e-07 9.53674e-07L16.1819 2.46343e-07L16.1819 4.01831L0 4.01831Z" fill="white"/>
</mask>
<g mask="url(#mask0_2_753)">
<path fill-rule="evenodd" clip-rule="evenodd" d="M16.1819 3.13229C16.1819 3.3072 16.1299 3.48329 16.0223 3.63811C15.7434 4.03993 15.1915 4.1392 14.7885 3.85911C10.723 1.03102 5.46511 1.03102 1.39256 3.85911C0.990742 4.13921 0.438833 4.03993 0.158741 3.63693C-0.12135 3.23511 -0.0208953 2.68439 0.382105 2.40429C4.99593 -0.801982 11.1922 -0.801982 15.8025 2.40429C16.0495 2.57684 16.1819 2.8522 16.1819 3.13229Z" fill="#FDC816"/>
</g>
<path fill-rule="evenodd" clip-rule="evenodd" d="M13.3348 6.0902C13.3348 6.24029 13.2969 6.39156 13.2166 6.53102C12.9731 6.95529 12.4307 7.10184 12.0076 6.85838C9.59549 5.47447 6.59603 5.47447 4.17684 6.85838C3.75139 7.10184 3.21012 6.95411 2.96666 6.52984C2.72793 6.10438 2.87093 5.56429 3.29521 5.32084C6.25921 3.62493 9.93467 3.62493 12.8892 5.32084C13.1752 5.48511 13.3348 5.78293 13.3348 6.0902Z" fill="#FDC816"/>
<path fill-rule="evenodd" clip-rule="evenodd" d="M11.6939 8.8636C11.6939 8.98479 11.6683 9.10695 11.6139 9.21955C11.4492 9.56215 11.0823 9.68049 10.7961 9.4839C9.16461 8.3664 7.13579 8.3664 5.49946 9.4839C5.21168 9.68049 4.84556 9.5612 4.68089 9.2186C4.51942 8.87505 4.61614 8.43893 4.90312 8.24234C6.90796 6.8729 9.39404 6.8729 11.3925 8.24234C11.5859 8.37499 11.6939 8.61547 11.6939 8.8636Z" fill="#FDC816"/>
<circle cx="8.27273" cy="11.8182" r="1.18182" fill="#FDC816"/>
</svg>
