<svg width="18" height="18" viewBox="0 0 18 18" fill="none" xmlns="http://www.w3.org/2000/svg">
<path fill-rule="evenodd" clip-rule="evenodd" d="M8.83267 10.0986C8.33092 10.0986 7.83067 9.93285 7.41217 9.60135L4.04842 6.88935C3.80617 6.69435 3.76867 6.3396 3.96292 6.0981C4.15867 5.85735 4.51267 5.8191 4.75417 6.01335L8.11492 8.72235C8.53717 9.05685 9.13192 9.05685 9.55717 8.71935L12.8842 6.01485C13.1257 5.8176 13.4797 5.8551 13.6762 6.0966C13.8719 6.33735 13.8352 6.69135 13.5944 6.88785L10.2614 9.59685C9.83992 9.93135 9.33592 10.0986 8.83267 10.0986Z" fill="#FDC816"/>
<mask id="mask0_2_744" style="mask-type:luminance" maskUnits="userSpaceOnUse" x="0" y="1" width="17" height="16">
<path fill-rule="evenodd" clip-rule="evenodd" d="M0.75 1.5H16.8749V16.125H0.75V1.5Z" fill="white"/>
</mask>
<g mask="url(#mask0_2_744)">
<path fill-rule="evenodd" clip-rule="evenodd" d="M5.12919 15H12.4942C12.4957 14.9985 12.5017 15 12.5062 15C13.3619 15 14.1209 14.694 14.7029 14.1128C15.3787 13.44 15.7499 12.4732 15.7499 11.391V6.24C15.7499 4.14525 14.3804 2.625 12.4942 2.625H5.13069C3.24444 2.625 1.87494 4.14525 1.87494 6.24V11.391C1.87494 12.4732 2.24694 13.44 2.92194 14.1128C3.50394 14.694 4.26369 15 5.11869 15H5.12919ZM5.11644 16.125C3.95919 16.125 2.92569 15.705 2.12769 14.91C1.23894 14.0235 0.749939 12.774 0.749939 11.391V6.24C0.749939 3.53775 2.63319 1.5 5.13069 1.5H12.4942C14.9917 1.5 16.8749 3.53775 16.8749 6.24V11.391C16.8749 12.774 16.3859 14.0235 15.4972 14.91C14.6999 15.7042 13.6657 16.125 12.5062 16.125H12.4942H5.13069H5.11644Z" fill="#FDC816"/>
</g>
</svg>
